# xmcd CD database file
#
# Track frame offsets:
#	150
#	13697
#	28670
#	40362
#	56970
#	75902
#	98877
#	123517
#	156035
#	183937
#	197130
#	220377
#	239432
#	246127
#	257717
#	270325
#	287022
#	301807
#
# Disc length: 4134 seconds
#
# Revision: 0
# Processed by: cddbd v1.5.2PL0 Copyright (c) Steve Scherf et al.
# Submitted via: CDex 1.51
#
DISCID=f7102412
DTITLE=ICP Orchestra - Bospaadje Konijnehol II
DYEAR=1900
DGENRE=Jazz
TTITLE0=K-Stukken - Kneushoorn
TTITLE1=K-Stukken - Kachel
TTITLE2=K-Stukken - Ktoel
TTITLE3=K-Stukken - Kafel
TTITLE4=K-Stukken - Kehang
TTITLE5=K-Stukken - Kroket
TTITLE6=K-Stukken - Kwela P'Kwana
TTITLE7=K-Stukken - Kraaloog
TTITLE8=Tegenstroom - Worp En Wederworp
TTITLE9=Tegenstroom - Vergezel De Steen Omhoog
TTITLE10=Tegenstroom - Groei Kommer Drafjes Uur
TTITLE11=Tegenstroom - De Bol Een Waaier
TTITLE12=Epiloog - Zing Zang Zaterdag
TTITLE13=Epiloog - Vieze En Lekkere Lucht
TTITLE14=Epiloog - Rollo 5
TTITLE15=Epiloog - Back To Lippiza
TTITLE16=Epiloog - Kasten En Boeken
TTITLE17=Epiloog - Bospaadje Konijnehol 2
EXTD=
EXTT0=
EXTT1=
EXTT2=
EXTT3=
EXTT4=
EXTT5=
EXTT6=
EXTT7=
EXTT8=
EXTT9=
EXTT10=
EXTT11=
EXTT12=
EXTT13=
EXTT14=
EXTT15=
EXTT16=
EXTT17=
PLAYORDER=
